<svg version="1.1" viewBox="0.0 0.0 384.0 384.0" fill="none" stroke="none" stroke-linecap="square" stroke-miterlimit="10" xmlns:xlink="http://www.w3.org/1999/xlink" xmlns="http://www.w3.org/2000/svg"><clipPath id="p.0"><path d="m0 0l384.0 0l0 384.0l-384.0 0l0 -384.0z" clip-rule="nonzero"/></clipPath><g clip-path="url(#p.0)"><path fill="#000000" fill-opacity="0.0" d="m0 0l384.0 0l0 384.0l-384.0 0z" fill-rule="evenodd"/><path fill="#000000" fill-opacity="0.0" d="m4.8031497 192.0l0 0c0 -103.38596 83.81089 -187.19685 187.19685 -187.19685l0 0c49.64769 0 97.26193 19.722467 132.36816 54.828686c35.10623 35.106224 54.828674 82.720474 54.828674 132.36816l0 0c0 103.385956 -83.81088 187.19684 -187.19684 187.19684l0 0c-103.38596 0 -187.19685 -83.81088 -187.19685 -187.19684z" fill-rule="evenodd"/><path stroke="#000000" stroke-width="8.0" stroke-linejoin="round" stroke-linecap="butt" d="m4.8031497 192.0l0 0c0 -103.38596 83.81089 -187.19685 187.19685 -187.19685l0 0c49.64769 0 97.26193 19.722467 132.36816 54.828686c35.10623 35.106224 54.828674 82.720474 54.828674 132.36816l0 0c0 103.385956 -83.81088 187.19684 -187.19684 187.19684l0 0c-103.38596 0 -187.19685 -83.81088 -187.19685 -187.19684z" fill-rule="evenodd"/><path fill="#000000" fill-opacity="0.0" d="m-41.0512 -21.632479l437.85315 0l0 424.3495l-437.85315 0z" fill-rule="evenodd"/><path fill="#000000" d="m187.63228 202.45163l-52.609375 0l0 64.890625l-5.625 0l0 -151.65625l48.328125 0q22.8125 0 36.296875 11.765625q13.499985 11.765625 13.499985 31.984375q0 15.515625 -9.640625 27.125q-9.624985 11.609375 -24.531235 14.421875l40.51561 64.90625l0 1.453125l-5.9375 0l-40.29686 -64.890625zm-52.609375 -5.625l47.8125 0q17.5 0 28.28125 -10.625q10.781235 -10.625 10.781235 -26.765625q0 -17.71875 -11.937485 -27.921875q-11.921875 -10.203125 -32.640625 -10.203125l-42.296875 0l0 75.515625z" fill-rule="nonzero"/><path fill="#000000" fill-opacity="0.0" d="m425.0512 405.63248l-437.85315 0l0 -424.3495l437.85315 0z" fill-rule="evenodd"/><path fill="#000000" d="m197.36772 181.54837l52.609375 0l0 -64.890625l5.625 0l0 151.65625l-48.328125 0q-22.8125 0 -36.296875 -11.765625q-13.499985 -11.765625 -13.499985 -31.984375q0 -15.515625 9.640625 -27.125q9.624985 -11.609375 24.531235 -14.421875l-40.51561 -64.90625l0 -1.453125l5.9375 0l40.29686 64.890625zm52.609375 5.625l-47.8125 0q-17.5 0 -28.28125 10.625q-10.781235 10.625 -10.781235 26.765625q0 17.71875 11.937485 27.921875q11.921875 10.203125 32.640625 10.203125l42.296875 0l0 -75.515625z" fill-rule="nonzero"/></g></svg>