<svg version="1.1" viewBox="0.0 0.0 384.0 384.0" fill="none" stroke="none" stroke-linecap="square" stroke-miterlimit="10" xmlns:xlink="http://www.w3.org/1999/xlink" xmlns="http://www.w3.org/2000/svg"><clipPath id="p.0"><path d="m0 0l384.0 0l0 384.0l-384.0 0l0 -384.0z" clip-rule="nonzero"/></clipPath><g clip-path="url(#p.0)"><path fill="#000000" fill-opacity="0.0" d="m0 0l384.0 0l0 384.0l-384.0 0z" fill-rule="evenodd"/><path fill="#000000" fill-opacity="0.0" d="m4.8031497 192.0l0 0c0 -103.38596 83.81089 -187.19685 187.19685 -187.19685l0 0c49.64769 0 97.26193 19.722467 132.36816 54.828686c35.10623 35.106224 54.828674 82.720474 54.828674 132.36816l0 0c0 103.385956 -83.81088 187.19684 -187.19684 187.19684l0 0c-103.38596 0 -187.19685 -83.81088 -187.19685 -187.19684z" fill-rule="evenodd"/><path stroke="#000000" stroke-width="8.0" stroke-linejoin="round" stroke-linecap="butt" d="m4.8031497 192.0l0 0c0 -103.38596 83.81089 -187.19685 187.19685 -187.19685l0 0c49.64769 0 97.26193 19.722467 132.36816 54.828686c35.10623 35.106224 54.828674 82.720474 54.828674 132.36816l0 0c0 103.385956 -83.81088 187.19684 -187.19684 187.19684l0 0c-103.38596 0 -187.19685 -83.81088 -187.19685 -187.19684z" fill-rule="evenodd"/><path fill="#000000" fill-opacity="0.0" d="m29.496063 227.79213l325.00787 0l0 82.01573l-325.00787 0z" fill-rule="evenodd"/><path fill="#000000" d="m96.30018 263.12436l-1.28125 -0.109375q-2.515625 0 -4.21875 1.640625q-1.6875 1.625 -2.203125 4.5625l0 12.921875l-0.984375 0l0 -19.71875l0.984375 0l0 4.09375q0.796875 -2.0625 2.390625 -3.25q1.609375 -1.203125 4.03125 -1.203125q0.859375 0 1.390625 0.1875l-0.109375 0.875zm15.802948 19.015625q-0.359375 -1.25 -0.359375 -3.609375q-1.171875 1.890625 -3.203125 2.9375q-2.015625 1.03125 -4.5625 1.03125q-2.734375 0 -4.40625 -1.484375q-1.671875 -1.484375 -1.671875 -3.875q0 -2.703125 2.453125 -4.328125q2.453125 -1.640625 6.515625 -1.6875l4.875 0l0 -2.875q0 -2.484375 -1.5625 -3.84375q-1.5625 -1.359375 -4.453125 -1.359375q-2.703125 0 -4.515625 1.390625q-1.796875 1.375 -1.796875 3.40625l-0.984375 -0.03125q0 -2.40625 2.109375 -4.078125q2.125 -1.671875 5.1875 -1.671875q3.1875 0 5.0625 1.59375q1.875 1.59375 1.9375 4.484375l0 9.421875q0 3.25 0.5 4.421875l0 0.15625l-1.125 0zm-8.125 -0.59375q2.765625 0 4.765625 -1.234375q2.0 -1.25 3.0 -3.5l0 -4.671875l-4.5625 0q-4.234375 0 -6.46875 1.671875q-1.828125 1.359375 -1.828125 3.40625q0 1.8125 1.4375 3.078125q1.453125 1.25 3.65625 1.25zm16.077988 -14.53125q0.953125 -2.296875 2.828125 -3.625q1.890625 -1.328125 4.171875 -1.328125q3.1718674 0 4.7031174 1.796875q1.546875 1.78125 1.5625 5.40625l0 12.875l-0.984375 0l0 -12.90625q-0.015625 -3.171875 -1.296875 -4.6875q-1.28125 -1.53125 -4.0468674 -1.53125q-2.546875 0 -4.421875 1.8125q-1.859375 1.8125 -2.515625 4.6875l0 12.625l-0.984375 0l0 -19.71875l0.984375 0l0 4.59375zm18.525795 5.0625q0 -4.71875 1.984375 -7.359375q2.0 -2.65625 5.453125 -2.65625q2.234375 0 3.9375 1.0q1.703125 1.0 2.75 2.984375l0 -11.906235l0.984375 0l0 27.999985l-0.984375 0l0 -3.15625q-1.0 1.6875 -2.75 2.609375q-1.75 0.90625 -3.96875 0.90625q-3.421875 0 -5.421875 -2.703125q-1.984375 -2.71875 -1.984375 -7.46875l0 -0.25zm1.03125 0.390625q0 4.1875 1.65625 6.625q1.65625 2.421875 4.703125 2.421875q2.4375 0 4.171875 -1.078125q1.734375 -1.078125 2.5625 -3.1875l0 -9.234375q-1.6875 -4.96875 -6.703125 -4.96875q-3.03125 0 -4.71875 2.390625q-1.671875 2.375 -1.671875 7.03125zm18.822693 -0.578125q0 -2.8125 1.078125 -5.0625q1.09375 -2.265625 3.0625 -3.515625q1.984375 -1.25 4.484375 -1.25q2.46875 0 4.4375 1.21875q1.96875 1.21875 3.0625 3.46875q1.109375 2.234375 1.140625 5.03125l0 0.875q0 2.84375 -1.078125 5.09375q-1.078125 2.234375 -3.0625 3.5q-1.96875 1.25 -4.46875 1.25q-2.5 0 -4.484375 -1.234375q-1.96875 -1.234375 -3.0625 -3.46875q-1.09375 -2.234375 -1.109375 -5.03125l0 -0.875zm0.984375 0.765625q0 2.46875 0.96875 4.515625q0.984375 2.046875 2.71875 3.203125q1.75 1.140625 3.984375 1.140625q3.375 0 5.5 -2.53125q2.125 -2.53125 2.125 -6.515625l0 -0.578125q0 -2.421875 -0.984375 -4.46875q-0.984375 -2.0625 -2.734375 -3.21875q-1.734375 -1.15625 -3.9375 -1.15625q-3.375 0 -5.515625 2.5625q-2.125 2.5625 -2.125 6.46875l0 0.578125zm33.213287 4.65625q0 -3.59375 -6.125 -4.890625q-3.6875 -0.78125 -5.125 -2.0q-1.4375 -1.234375 -1.4375 -3.390625q0 -2.171875 1.828125 -3.5625q1.828125 -1.40625 4.765625 -1.40625q3.1875 0 5.125 1.515625q1.9375 1.515625 1.9375 4.109375l-1.015625 0q0 -1.984375 -1.671875 -3.3125q-1.671875 -1.328125 -4.375 -1.328125q-2.59375 0 -4.109375 1.125q-1.5 1.125 -1.5 2.828125q0 1.328125 0.5625 2.09375q0.5625 0.75 1.828125 1.359375q1.28125 0.609375 3.71875 1.171875q2.453125 0.5625 3.875 1.328125q1.421875 0.765625 2.0625 1.8125q0.640625 1.046875 0.640625 2.5625q0 2.328125 -1.921875 3.75q-1.90625 1.421875 -5.015625 1.421875q-3.3125 0 -5.34375 -1.5q-2.03125 -1.5 -2.03125 -3.875l0.984375 0q0.140625 2.078125 1.828125 3.234375q1.6875 1.15625 4.5625 1.15625q2.65625 0 4.296875 -1.21875q1.65625 -1.234375 1.65625 -2.984375zm13.104187 4.203125q2.671875 0 4.40625 -1.421875q1.75 -1.421875 1.921875 -3.9375l0.984375 0q-0.15625 2.875 -2.21875 4.609375q-2.046875 1.734375 -5.09375 1.734375q-3.703125 0 -5.890625 -2.671875q-2.171875 -2.6875 -2.171875 -7.28125l0 -0.65625q0 -4.484375 2.171875 -7.15625q2.1875 -2.671875 5.84375 -2.671875q3.140625 0 5.171875 1.875q2.046875 1.875 2.1875 4.984375l-0.984375 0q-0.140625 -2.65625 -1.875 -4.265625q-1.734375 -1.609375 -4.5 -1.609375q-3.296875 0 -5.171875 2.375q-1.859375 2.375 -1.859375 6.609375l0 0.625q0 4.140625 1.890625 6.5q1.890625 2.359375 5.1875 2.359375zm13.4687195 0.625l-0.984375 0l0 -19.71875l0.984375 0l0 19.71875zm-1.5 -25.875q0 -0.42185974 0.28125 -0.71873474q0.296875 -0.3125 0.71875 -0.3125q0.421875 0 0.71875 0.3125q0.3125 0.296875 0.3125 0.71873474q0 0.40625 -0.3125 0.703125q-0.296875 0.296875 -0.71875 0.296875q-0.421875 0 -0.71875 -0.296875q-0.28125 -0.296875 -0.28125 -0.703125zm15.050995 26.234375q-2.375 0 -4.375 -1.28125q-2.0 -1.28125 -3.140625 -3.515625q-1.125 -2.25 -1.125 -4.984375l0 -0.828125q0 -2.734375 1.09375 -5.0q1.09375 -2.28125 3.0 -3.546875q1.921875 -1.28125 4.1875 -1.28125q3.296875 0 5.390625 2.34375q2.109375 2.34375 2.109375 6.171875l0 1.046875l-14.796875 0l0 1.078125q0 2.40625 1.015625 4.453125q1.015625 2.046875 2.78125 3.21875q1.78125 1.171875 3.859375 1.171875q2.0 0 3.390625 -0.671875q1.390625 -0.671875 2.46875 -2.046875l0.6875 0.484375q-2.203125 3.1875 -6.546875 3.1875zm-0.359375 -19.453125q-2.875 0 -4.890625 2.140625q-2.0 2.140625 -2.34375 5.453125l13.75 0l0 -0.234375q0 -2.015625 -0.859375 -3.734375q-0.84375 -1.71875 -2.328125 -2.671875q-1.484375 -0.953125 -3.328125 -0.953125zm13.0755005 3.96875q0.953125 -2.296875 2.828125 -3.625q1.890625 -1.328125 4.171875 -1.328125q3.171875 0 4.703125 1.796875q1.546875 1.78125 1.5625 5.40625l0 12.875l-0.984375 0l0 -12.90625q-0.015625 -3.171875 -1.296875 -4.6875q-1.28125 -1.53125 -4.046875 -1.53125q-2.546875 0 -4.421875 1.8125q-1.859375 1.8125 -2.515625 4.6875l0 12.625l-0.984375 0l0 -19.71875l0.984375 0l0 4.59375zm26.135193 14.5q2.671875 0 4.40625 -1.421875q1.75 -1.421875 1.921875 -3.9375l0.984375 0q-0.15625 2.875 -2.21875 4.609375q-2.046875 1.734375 -5.09375 1.734375q-3.703125 0 -5.890625 -2.671875q-2.171875 -2.6875 -2.171875 -7.28125l0 -0.65625q0 -4.484375 2.171875 -7.15625q2.1875 -2.671875 5.84375 -2.671875q3.140625 0 5.171875 1.875q2.046875 1.875 2.1875 4.984375l-0.984375 0q-0.140625 -2.65625 -1.875 -4.265625q-1.734375 -1.609375 -4.5 -1.609375q-3.296875 0 -5.171875 2.375q-1.859375 2.375 -1.859375 6.609375l0 0.625q0 4.140625 1.890625 6.5q1.890625 2.359375 5.1875 2.359375zm19.328094 0.984375q-2.375 0 -4.375 -1.28125q-2.0 -1.28125 -3.140625 -3.515625q-1.125 -2.25 -1.125 -4.984375l0 -0.828125q0 -2.734375 1.09375 -5.0q1.09375 -2.28125 3.0 -3.546875q1.921875 -1.28125 4.1875 -1.28125q3.296875 0 5.390625 2.34375q2.109375 2.34375 2.109375 6.171875l0 1.046875l-14.796875 0l0 1.078125q0 2.40625 1.015625 4.453125q1.015625 2.046875 2.78125 3.21875q1.78125 1.171875 3.859375 1.171875q2.0 0 3.390625 -0.671875q1.390625 -0.671875 2.46875 -2.046875l0.6875 0.484375q-2.203125 3.1875 -6.546875 3.1875zm-0.359375 -19.453125q-2.875 0 -4.890625 2.140625q-2.0 2.140625 -2.34375 5.453125l13.75 0l0 -0.234375q0 -2.015625 -0.859375 -3.734375q-0.84375 -1.71875 -2.328125 -2.671875q-1.484375 -0.953125 -3.328125 -0.953125z" fill-rule="nonzero"/><path fill="#000000" fill-opacity="0.0" d="m141.05774 234.18347l133.16534 0l0 -149.22836l-133.16534 0z" fill-rule="evenodd"/><path fill="#000000" d="m192.51997 148.90305l46.6875 0l0 -57.593758l4.984375 0l0 134.59375l-42.890625 0q-20.25 0 -32.21875 -10.453125q-11.96875 -10.4375 -11.96875 -28.375q0 -13.765625 8.546875 -24.078125q8.546875 -10.296875 21.78125 -12.796875l-35.96875 -57.593758l0 -1.296875l5.265625 0l35.78125 57.593758zm46.6875 4.984375l-42.4375 0q-15.53125 0 -25.09375 9.421875q-9.578125 9.4375 -9.578125 23.765625q0 15.71875 10.59375 24.78125q10.578125 9.0625 28.984375 9.0625l37.53125 0l0 -67.03125z" fill-rule="nonzero"/><path fill="#000000" fill-opacity="0.0" d="m109.7769 81.55354l133.16536 0l0 149.22835l-133.16536 0z" fill-rule="evenodd"/><path fill="#000000" d="m191.48003 166.83397l-46.6875 0l0 57.59375l-4.984375 0l0 -134.59375l42.890625 0q20.25 0 32.21875 10.453125q11.96875 10.4375 11.96875 28.375q0 13.765625 -8.546875 24.078125q-8.546875 10.296875 -21.78125 12.796875l35.96875 57.59375l0 1.296875l-5.265625 0l-35.78125 -57.59375zm-46.6875 -4.984375l42.4375 0q15.53125 0 25.09375 -9.421875q9.578125 -9.4375 9.578125 -23.765625q0 -15.71875 -10.59375 -24.78125q-10.578125 -9.0625 -28.984375 -9.0625l-37.53125 0l0 67.03125z" fill-rule="nonzero"/></g></svg>