<svg version="1.1" viewBox="0.0 0.0 384.0 384.0" fill="none" stroke="none" stroke-linecap="square" stroke-miterlimit="10" xmlns:xlink="http://www.w3.org/1999/xlink" xmlns="http://www.w3.org/2000/svg"><clipPath id="p.0"><path d="m0 0l384.0 0l0 384.0l-384.0 0l0 -384.0z" clip-rule="nonzero"/></clipPath><g clip-path="url(#p.0)"><path fill="#000000" fill-opacity="0.0" d="m0 0l384.0 0l0 384.0l-384.0 0z" fill-rule="evenodd"/><path fill="#000000" fill-opacity="0.0" d="m-75.80579 -21.632479l437.85315 0l0 424.3495l-437.85315 0z" fill-rule="evenodd"/><path fill="#000000" d="m152.24222 204.21725l-44.062492 0l0 63.125l-12.90625 0l0 -151.65625l49.265617 0q24.265625 0 37.906265 11.765625q13.65625 11.765625 13.65625 32.921875q0 14.578125 -8.546875 25.71875q-8.531265 11.140625 -22.906265 15.421875l37.906265 64.46875l0 1.359375l-13.640625 0l-36.67189 -63.125zm-44.062492 -10.9375l39.281242 0q16.140625 0 25.921875 -9.15625q9.79689 -9.171875 9.79689 -23.75q0 -16.046875 -10.20314 -24.890625q-10.203125 -8.859375 -28.640625 -8.859375l-36.156242 0l0 66.65625z" fill-rule="nonzero"/><path fill="#000000" fill-opacity="0.0" d="m459.8058 405.63248l-437.85315 0l0 -424.3495l437.85315 0z" fill-rule="evenodd"/><path fill="#000000" d="m232.75778 179.78275l44.0625 0l0 -63.125l12.90625 0l0 151.65625l-49.265625 0q-24.265625 0 -37.906265 -11.765625q-13.65625 -11.765625 -13.65625 -32.921875q0 -14.578125 8.546875 -25.71875q8.531265 -11.140625 22.906265 -15.421875l-37.906265 -64.46875l0 -1.359375l13.640625 0l36.67189 63.125zm44.0625 10.9375l-39.28125 0q-16.140625 0 -25.921875 9.15625q-9.79689 9.171875 -9.79689 23.75q0 16.046875 10.20314 24.890625q10.203125 8.859375 28.640625 8.859375l36.15625 0l0 -66.65625z" fill-rule="nonzero"/><path fill="#000000" fill-opacity="0.0" d="m14.393701 192.0l0 0c0 -98.08925 79.51705 -177.6063 177.6063 -177.6063l0 0c47.104126 0 92.27896 18.71204 125.58661 52.019684c33.307648 33.30764 52.019684 78.48249 52.019684 125.58662l0 0c0 98.089264 -79.51703 177.6063 -177.6063 177.6063l0 0c-98.08925 0 -177.6063 -79.51703 -177.6063 -177.6063z" fill-rule="evenodd"/><path stroke="#000000" stroke-width="16.0" stroke-linejoin="round" stroke-linecap="butt" d="m14.393701 192.0l0 0c0 -98.08925 79.51705 -177.6063 177.6063 -177.6063l0 0c47.104126 0 92.27896 18.71204 125.58661 52.019684c33.307648 33.30764 52.019684 78.48249 52.019684 125.58662l0 0c0 98.089264 -79.51703 177.6063 -177.6063 177.6063l0 0c-98.08925 0 -177.6063 -79.51703 -177.6063 -177.6063z" fill-rule="evenodd"/></g></svg>